# xmcd
# 
# Track frame offsets:
#     150
#     23692
#     42510
#     59480
# 
# Disc length: 1104
# 
# Revision: 0
# Processed by: cddbd v1.5.2PL0 Copyright (c) Steve Scherf et al.
# Submitted via: BonkEnc v1.0.8
# 
DISCID=2f044e04
DTITLE=SCANDAL - 涙のリグレット
DYEAR=2010
DGENRE=Rock
TTITLE0=涙のリグレット
TTITLE1=Midnight Television
TTITLE2=Shining Sun
TTITLE3=涙のリグレット(instr)
EXTD=year 2010
EXTT0=
EXTT1=
EXTT2=
EXTT3=
PLAYORDER=
